<svg width="10" height="14" viewBox="0 0 10 14" fill="none" xmlns="http://www.w3.org/2000/svg">
<path d="M4.99998 6.66658C4.55795 6.66658 4.13403 6.49099 3.82147 6.17843C3.50891 5.86587 3.33331 5.44195 3.33331 4.99992C3.33331 4.55789 3.50891 4.13397 3.82147 3.82141C4.13403 3.50885 4.55795 3.33325 4.99998 3.33325C5.44201 3.33325 5.86593 3.50885 6.17849 3.82141C6.49105 4.13397 6.66665 4.55789 6.66665 4.99992C6.66665 5.21879 6.62354 5.43551 6.53978 5.63772C6.45602 5.83993 6.33325 6.02367 6.17849 6.17843C6.02373 6.33319 5.83999 6.45596 5.63779 6.53972C5.43558 6.62348 5.21885 6.66658 4.99998 6.66658ZM4.99998 0.333252C3.7623 0.333252 2.57532 0.824917 1.70015 1.70009C0.824978 2.57526 0.333313 3.76224 0.333313 4.99992C0.333313 8.49992 4.99998 13.6666 4.99998 13.6666C4.99998 13.6666 9.66665 8.49992 9.66665 4.99992C9.66665 3.76224 9.17498 2.57526 8.29981 1.70009C7.42464 0.824917 6.23766 0.333252 4.99998 0.333252Z" fill="#6CC551"/>
</svg>
