<svg width="161" height="40" viewBox="0 0 161 40" fill="none" xmlns="http://www.w3.org/2000/svg">
<path d="M21.5725 15.2258C21.5725 16.4274 20.5984 17.4014 19.3969 17.4014H2.17555C0.974027 17.4014 0 16.4274 0 15.2258C0 14.0243 0.974025 13.0503 2.17555 13.0503H19.3969C20.5984 13.0503 21.5725 14.0243 21.5725 15.2258ZM23.7283 31.8244C23.7283 33.026 22.7542 34 21.5527 34H8.2136C7.01208 34 6.03805 33.026 6.03805 31.8244C6.03805 30.6229 7.01207 29.6489 8.2136 29.6489H21.5527C22.7542 29.6489 23.7283 30.6229 23.7283 31.8244ZM24.7283 23.1223C24.7283 24.3238 23.7542 25.2978 22.5527 25.2978H13.2082C12.0066 25.2978 11.0326 24.3238 11.0326 23.1223C11.0326 21.9207 12.0066 20.9467 13.2082 20.9467H22.5527C23.7542 20.9467 24.7283 21.9207 24.7283 23.1223Z" fill="#6CC551"/>
<path d="M15.3587 10.3511H24.9457C26.0802 10.3511 27 9.37706 27 8.17554C27 6.97402 26.0802 6 24.9457 6H15.3587C14.2241 6 13.3044 6.97402 13.3044 8.17554C13.3044 9.37706 14.2241 10.3511 15.3587 10.3511Z" fill="#6CC551"/>
<circle cx="47" cy="20" r="20" fill="#6CC551"/>
<path d="M46.9809 33C45.021 33 43.2521 32.6389 41.674 31.9167C40.0959 31.1704 38.7342 30.1833 37.5888 28.9556C36.4435 27.7278 35.5526 26.3435 34.9163 24.8028C34.3054 23.238 34 21.637 34 20C34 18.2907 34.3309 16.6657 34.9927 15.125C35.6544 13.5602 36.5707 12.1759 37.7416 10.9722C38.9124 9.74444 40.2868 8.78148 41.8649 8.08333C43.4684 7.36111 45.1992 7 47.0573 7C48.9917 7 50.7479 7.37315 52.326 8.11945C53.9295 8.86574 55.2912 9.86481 56.4112 11.1167C57.5565 12.3685 58.4347 13.7648 59.0455 15.3056C59.6818 16.8463 60 18.4231 60 20.0361C60 21.7454 59.6691 23.3824 59.0073 24.9472C58.371 26.488 57.4674 27.8722 56.2966 29.1C55.1258 30.3037 53.7386 31.2546 52.1351 31.9528C50.557 32.6509 48.839 33 46.9809 33ZM47.0191 29.3528C48.3935 29.3528 49.6153 29.088 50.6843 28.5583C51.7533 28.0287 52.6441 27.3185 53.3568 26.4278C54.095 25.513 54.6549 24.5019 55.0367 23.3944C55.4185 22.263 55.6094 21.1315 55.6094 20C55.6094 18.7963 55.4058 17.6287 54.9985 16.4972C54.6167 15.3657 54.0441 14.3667 53.2805 13.5C52.5169 12.6333 51.6006 11.9472 50.5316 11.4417C49.488 10.912 48.3172 10.6472 47.0191 10.6472C45.6446 10.6472 44.4229 10.912 43.3539 11.4417C42.2849 11.9713 41.3813 12.6935 40.6432 13.6083C39.905 14.4991 39.3324 15.4981 38.9251 16.6056C38.5433 17.713 38.3524 18.8444 38.3524 20C38.3524 21.2037 38.556 22.3713 38.9633 23.5028C39.3705 24.6343 39.9432 25.6333 40.6814 26.5C41.4449 27.3667 42.3612 28.0648 43.4302 28.5944C44.4993 29.1 45.6955 29.3528 47.0191 29.3528ZM47.5536 23.9H51.6769L59.9236 32.8194H55.8003L47.5536 23.9Z" fill="white"/>
<path d="M74.808 31.24C73.832 31.24 73.024 31.064 72.384 30.712C71.744 30.344 71.264 29.8 70.944 29.08C70.64 28.36 70.488 27.464 70.488 26.392V20.584C70.488 20.072 70.616 19.696 70.872 19.456C71.128 19.2 71.496 19.072 71.976 19.072C72.456 19.072 72.824 19.2 73.08 19.456C73.352 19.696 73.488 20.072 73.488 20.584V26.44C73.488 27.272 73.656 27.888 73.992 28.288C74.328 28.688 74.864 28.888 75.6 28.888C76.4 28.888 77.056 28.616 77.568 28.072C78.08 27.512 78.336 26.776 78.336 25.864V20.584C78.336 20.072 78.464 19.696 78.72 19.456C78.976 19.2 79.344 19.072 79.824 19.072C80.304 19.072 80.672 19.2 80.928 19.456C81.2 19.696 81.336 20.072 81.336 20.584V29.656C81.336 30.68 80.848 31.192 79.872 31.192C79.408 31.192 79.048 31.064 78.792 30.808C78.536 30.536 78.408 30.152 78.408 29.656V27.832L78.744 28.552C78.408 29.416 77.896 30.08 77.208 30.544C76.536 31.008 75.736 31.24 74.808 31.24ZM85.9464 31.168C85.4664 31.168 85.0984 31.024 84.8424 30.736C84.5864 30.448 84.4584 30.048 84.4584 29.536V20.728C84.4584 20.2 84.5864 19.8 84.8424 19.528C85.0984 19.24 85.4664 19.096 85.9464 19.096C86.4264 19.096 86.7944 19.24 87.0504 19.528C87.3224 19.8 87.4584 20.2 87.4584 20.728V29.536C87.4584 30.048 87.3304 30.448 87.0744 30.736C86.8184 31.024 86.4424 31.168 85.9464 31.168ZM85.9464 16.864C85.3864 16.864 84.9464 16.728 84.6264 16.456C84.3224 16.168 84.1704 15.776 84.1704 15.28C84.1704 14.768 84.3224 14.376 84.6264 14.104C84.9464 13.832 85.3864 13.696 85.9464 13.696C86.5224 13.696 86.9624 13.832 87.2664 14.104C87.5704 14.376 87.7224 14.768 87.7224 15.28C87.7224 15.776 87.5704 16.168 87.2664 16.456C86.9624 16.728 86.5224 16.864 85.9464 16.864ZM95.9996 31.24C94.7676 31.24 93.6956 30.992 92.7836 30.496C91.8716 29.984 91.1676 29.264 90.6716 28.336C90.1756 27.408 89.9276 26.32 89.9276 25.072C89.9276 24.128 90.0636 23.288 90.3356 22.552C90.6236 21.8 91.0316 21.168 91.5596 20.656C92.0876 20.128 92.7276 19.728 93.4796 19.456C94.2316 19.168 95.0716 19.024 95.9996 19.024C96.5276 19.024 97.0956 19.096 97.7036 19.24C98.3276 19.384 98.9116 19.624 99.4556 19.96C99.7116 20.12 99.8796 20.312 99.9596 20.536C100.04 20.76 100.056 20.992 100.008 21.232C99.9596 21.456 99.8556 21.656 99.6956 21.832C99.5516 21.992 99.3676 22.096 99.1436 22.144C98.9196 22.176 98.6716 22.12 98.3996 21.976C98.0476 21.768 97.6876 21.616 97.3196 21.52C96.9516 21.408 96.5996 21.352 96.2636 21.352C95.7356 21.352 95.2716 21.44 94.8716 21.616C94.4716 21.776 94.1276 22.016 93.8396 22.336C93.5676 22.64 93.3596 23.024 93.2156 23.488C93.0716 23.952 92.9996 24.488 92.9996 25.096C92.9996 26.28 93.2796 27.216 93.8396 27.904C94.4156 28.576 95.2236 28.912 96.2636 28.912C96.5996 28.912 96.9436 28.864 97.2956 28.768C97.6636 28.672 98.0316 28.52 98.3996 28.312C98.6716 28.168 98.9116 28.12 99.1196 28.168C99.3436 28.216 99.5276 28.328 99.6716 28.504C99.8156 28.664 99.9036 28.864 99.9356 29.104C99.9676 29.328 99.9356 29.552 99.8396 29.776C99.7596 30 99.5996 30.184 99.3596 30.328C98.8316 30.648 98.2716 30.88 97.6796 31.024C97.0876 31.168 96.5276 31.24 95.9996 31.24ZM103.384 31.192C102.904 31.192 102.536 31.064 102.28 30.808C102.024 30.536 101.896 30.152 101.896 29.656V15.4C101.896 14.904 102.024 14.528 102.28 14.272C102.536 14.016 102.904 13.888 103.384 13.888C103.864 13.888 104.232 14.016 104.488 14.272C104.76 14.528 104.896 14.904 104.896 15.4V24.256H104.944L108.904 20.08C109.224 19.76 109.504 19.512 109.744 19.336C109.984 19.16 110.312 19.072 110.728 19.072C111.144 19.072 111.456 19.184 111.664 19.408C111.888 19.616 112 19.872 112 20.176C112 20.48 111.856 20.784 111.568 21.088L107.392 25.504V24.256L111.976 29.2C112.264 29.504 112.392 29.816 112.36 30.136C112.344 30.44 112.216 30.696 111.976 30.904C111.736 31.096 111.432 31.192 111.064 31.192C110.616 31.192 110.256 31.104 109.984 30.928C109.728 30.752 109.44 30.488 109.12 30.136L104.944 25.768H104.896V29.656C104.896 30.68 104.392 31.192 103.384 31.192ZM119.093 31.192C118.693 31.192 118.341 31.088 118.037 30.88C117.749 30.672 117.509 30.352 117.317 29.92L113.501 21.064C113.357 20.712 113.301 20.384 113.333 20.08C113.381 19.776 113.525 19.536 113.765 19.36C114.021 19.168 114.365 19.072 114.797 19.072C115.165 19.072 115.461 19.16 115.685 19.336C115.909 19.496 116.109 19.808 116.285 20.272L119.525 28.36H118.805L122.141 20.248C122.317 19.8 122.517 19.496 122.741 19.336C122.981 19.16 123.301 19.072 123.701 19.072C124.053 19.072 124.333 19.168 124.541 19.36C124.749 19.536 124.877 19.776 124.925 20.08C124.973 20.368 124.917 20.688 124.757 21.04L120.869 29.92C120.693 30.352 120.453 30.672 120.149 30.88C119.861 31.088 119.509 31.192 119.093 31.192ZM132.547 31.24C131.219 31.24 130.075 30.992 129.115 30.496C128.155 30 127.411 29.296 126.883 28.384C126.371 27.472 126.115 26.392 126.115 25.144C126.115 23.928 126.363 22.864 126.859 21.952C127.371 21.04 128.067 20.328 128.947 19.816C129.843 19.288 130.859 19.024 131.995 19.024C132.827 19.024 133.571 19.16 134.227 19.432C134.899 19.704 135.467 20.096 135.931 20.608C136.411 21.12 136.771 21.744 137.011 22.48C137.267 23.2 137.395 24.016 137.395 24.928C137.395 25.216 137.291 25.44 137.083 25.6C136.891 25.744 136.611 25.816 136.243 25.816H128.539V24.088H135.283L134.899 24.448C134.899 23.712 134.787 23.096 134.563 22.6C134.355 22.104 134.043 21.728 133.627 21.472C133.227 21.2 132.723 21.064 132.115 21.064C131.443 21.064 130.867 21.224 130.387 21.544C129.923 21.848 129.563 22.288 129.307 22.864C129.067 23.424 128.947 24.096 128.947 24.88V25.048C128.947 26.36 129.251 27.344 129.859 28C130.483 28.64 131.395 28.96 132.595 28.96C133.011 28.96 133.475 28.912 133.987 28.816C134.515 28.704 135.011 28.52 135.475 28.264C135.811 28.072 136.107 27.992 136.363 28.024C136.619 28.04 136.819 28.128 136.963 28.288C137.123 28.448 137.219 28.648 137.251 28.888C137.283 29.112 137.235 29.344 137.107 29.584C136.995 29.824 136.795 30.032 136.507 30.208C135.947 30.56 135.299 30.824 134.563 31C133.843 31.16 133.171 31.24 132.547 31.24ZM141.307 31.192C140.811 31.192 140.427 31.064 140.155 30.808C139.899 30.536 139.771 30.152 139.771 29.656V20.584C139.771 20.088 139.899 19.712 140.155 19.456C140.411 19.2 140.771 19.072 141.235 19.072C141.699 19.072 142.059 19.2 142.315 19.456C142.571 19.712 142.699 20.088 142.699 20.584V22.096H142.459C142.683 21.136 143.123 20.408 143.779 19.912C144.435 19.416 145.307 19.12 146.395 19.024C146.731 18.992 146.995 19.08 147.187 19.288C147.395 19.48 147.515 19.784 147.547 20.2C147.579 20.6 147.483 20.928 147.259 21.184C147.051 21.424 146.731 21.568 146.299 21.616L145.771 21.664C144.795 21.76 144.059 22.064 143.563 22.576C143.067 23.072 142.819 23.776 142.819 24.688V29.656C142.819 30.152 142.691 30.536 142.435 30.808C142.179 31.064 141.803 31.192 141.307 31.192ZM152.872 35.512C152.52 35.512 152.232 35.416 152.008 35.224C151.784 35.048 151.648 34.808 151.6 34.504C151.568 34.2 151.624 33.88 151.768 33.544L153.4 29.92V31.168L149.032 21.064C148.888 20.712 148.84 20.384 148.888 20.08C148.936 19.776 149.08 19.536 149.32 19.36C149.576 19.168 149.92 19.072 150.352 19.072C150.72 19.072 151.016 19.16 151.24 19.336C151.464 19.496 151.664 19.808 151.84 20.272L155.08 28.36H154.36L157.672 20.248C157.848 19.8 158.056 19.496 158.296 19.336C158.536 19.16 158.856 19.072 159.256 19.072C159.608 19.072 159.888 19.168 160.096 19.36C160.304 19.536 160.432 19.776 160.48 20.08C160.528 20.368 160.472 20.688 160.312 21.04L154.48 34.36C154.272 34.808 154.048 35.112 153.808 35.272C153.568 35.432 153.256 35.512 152.872 35.512Z" fill="black"/>
</svg>
