<svg width="65" height="38" viewBox="0 0 65 38" fill="none" xmlns="http://www.w3.org/2000/svg">
<path d="M20.6065 14.4645C20.6065 15.6059 19.6812 16.5313 18.5398 16.5313H2.06677C0.925327 16.5313 0 15.6059 0 14.4645C0 13.3231 0.925324 12.3977 2.06677 12.3977H18.5398C19.6812 12.3977 20.6065 13.3231 20.6065 14.4645ZM22.6658 30.2332C22.6658 31.3746 21.7405 32.3 20.599 32.3H7.83446C6.69301 32.3 5.76769 31.3746 5.76769 30.2332C5.76769 29.0917 6.69301 28.1664 7.83446 28.1664H20.599C21.7405 28.1664 22.6658 29.0917 22.6658 30.2332ZM23.621 21.9661C23.621 23.1075 22.6957 24.0329 21.5543 24.0329H12.6054C11.4639 24.0329 10.5386 23.1075 10.5386 21.9661C10.5386 20.8247 11.4639 19.8993 12.6054 19.8993H21.5543C22.6957 19.8993 23.621 20.8247 23.621 21.9661Z" fill="#6CC551"/>
<path d="M14.671 9.83348H23.8287C24.9125 9.83348 25.791 8.90816 25.791 7.76672C25.791 6.62527 24.9125 5.69995 23.8287 5.69995H14.671C13.5872 5.69995 12.7086 6.62527 12.7086 7.76672C12.7086 8.90816 13.5872 9.83348 14.671 9.83348Z" fill="#6CC551"/>
<ellipse cx="45.1045" cy="19" rx="19.1045" ry="19" fill="#6CC551"/>
<path d="M45.3997 31.7C43.5276 31.7 41.8378 31.3569 40.3304 30.6708C38.823 29.9619 37.5222 29.0242 36.4281 27.8578C35.3341 26.6914 34.4831 25.3763 33.8753 23.9126C33.2918 22.4261 33 20.9052 33 19.35C33 17.7262 33.3161 16.1825 33.9482 14.7188C34.5804 13.2322 35.4556 11.9171 36.574 10.7736C37.6924 9.60722 39.0053 8.69241 40.5127 8.02917C42.0445 7.34306 43.6978 7 45.4726 7C47.3204 7 48.998 7.35449 50.5054 8.06347C52.0371 8.77245 53.3379 9.72157 54.4077 10.9108C55.5018 12.1001 56.3406 13.4266 56.9241 14.8903C57.5319 16.354 57.8358 17.852 57.8358 19.3843C57.8358 21.0081 57.5198 22.5633 56.8876 24.0499C56.2798 25.5136 55.4167 26.8286 54.2983 27.995C53.1799 29.1385 51.8548 30.0419 50.3231 30.7051C48.8157 31.3684 47.1745 31.7 45.3997 31.7ZM45.4361 28.2351C46.7491 28.2351 47.9161 27.9836 48.9372 27.4804C49.9584 26.9773 50.8093 26.3026 51.4901 25.4564C52.1952 24.5873 52.7301 23.6268 53.0948 22.5747C53.4595 21.4998 53.6418 20.4249 53.6418 19.35C53.6418 18.2065 53.4473 17.0973 53.0583 16.0224C52.6936 14.9475 52.1466 13.9983 51.4172 13.175C50.6878 12.3517 49.8125 11.6999 48.7914 11.2196C47.7945 10.7164 46.6761 10.4649 45.4361 10.4649C44.1232 10.4649 42.9562 10.7164 41.9351 11.2196C40.9139 11.7227 40.0508 12.4088 39.3457 13.2779C38.6406 14.1241 38.0936 15.0732 37.7046 16.1253C37.3399 17.1773 37.1575 18.2522 37.1575 19.35C37.1575 20.4935 37.352 21.6027 37.7411 22.6776C38.1301 23.7525 38.6771 24.7017 39.3822 25.525C40.1116 26.3483 40.9869 27.0116 42.008 27.5147C43.0291 27.995 44.1719 28.2351 45.4361 28.2351ZM45.9467 23.055H49.8854L57.7629 31.5285H53.8242L45.9467 23.055Z" fill="white"/>
</svg>
